IKResults
version=1
nRows=96
nColumns=3
inDegrees=yes

Units are S.I. units (second, meters, Newtons, ...)
If the header above contains a line with 'inDegrees', this indicates whether rotational values are in degrees (yes) or radians (no).

endheader
time	r_shoulder_elev	r_elbow_flex
     27.18300000	      4.42179806	    154.59511717
     27.19200000	      4.41322235	    154.58936160
     27.20000000	      4.40656360	    154.58339612
     27.20800000	      4.39999441	    154.57737993
     27.21700000	      4.39399785	    154.56940955
     27.22500000	      4.38916321	    154.56047601
     27.23300000	      4.38380966	    154.55048298
     27.24200000	      4.38029128	    154.53752866
     27.25000000	      4.37663481	    154.52466899
     27.25800000	      4.37540108	    154.50968944
     27.26700000	      4.37234949	    154.49482781
     27.27500000	      4.37022667	    154.48186971
     27.28300000	      4.37082941	    154.46859975
     27.29200000	      4.36982868	    154.45461711
     27.30000000	      4.37028181	    154.44141763
     27.30800000	      4.37375641	    154.43136714
     27.31700000	      4.37431433	    154.42191418
     27.32500000	      4.37535862	    154.41237671
     27.33300000	      4.37892127	    154.40536142
     27.34200000	      4.38205638	    154.40117468
     27.35000000	      4.38431546	    154.39779855
     27.35800000	      4.38750211	    154.39380192
     27.36700000	      4.39273844	    154.39075676
     27.37500000	      4.39682598	    154.38712734
     27.38300000	      4.40045242	    154.38371975
     27.39200000	      4.40545555	    154.38053251
     27.40000000	      4.41083713	    154.37424808
     27.40800000	      4.41620427	    154.36598140
     27.41700000	      4.42157645	    154.35784136
     27.42500000	      4.42783733	    154.34897555
     27.43300000	      4.43276213	    154.33787974
     27.44200000	      4.44026218	    154.32679776
     27.45000000	      4.44710317	    154.31579599
     27.45800000	      4.45458870	    154.30758643
     27.46700000	      4.46167193	    154.29814558
     27.47500000	      4.46724765	    154.29293723
     27.48300000	      4.47351830	    154.28444343
     27.49200000	      4.47955937	    154.27614592
     27.50000000	      4.48693715	    154.26495846
     27.50800000	      4.49373283	    154.25001177
     27.51700000	      4.50146455	    154.23410232
     27.52500000	      4.50923898	    154.21354676
     27.53300000	      4.51684891	    154.19028643
     27.54200000	      4.52412667	    154.16702086
     27.55000000	      4.53112115	    154.14103028
     27.55800000	      4.53628569	    154.11516410
     27.56700000	      4.54250717	    154.09389049
     27.57500000	      4.54545610	    154.07294901
     27.58300000	      4.54975611	    154.05548380
     27.59200000	      4.55474243	    154.03980461
     27.60000000	      4.55923410	    154.02875829
     27.60800000	      4.56315890	    154.01788679
     27.61700000	      4.56883620	    154.01205248
     27.62500000	      4.57392465	    154.00571532
     27.63300000	      4.57757101	    154.00338240
     27.64200000	      4.58195711	    154.00202695
     27.65000000	      4.58837537	    154.00273227
     27.65800000	      4.59268531	    154.00474360
     27.66700000	      4.59732013	    154.00970382
     27.67500000	      4.60198525	    154.01298746
     27.68300000	      4.60694586	    154.01804094
     27.69200000	      4.61284268	    154.02379800
     27.70000000	      4.61668491	    154.02718740
     27.70800000	      4.62002906	    154.02969168
     27.71700000	      4.62499834	    154.03103294
     27.72500000	      4.62875551	    154.03095882
     27.73300000	      4.63250169	    154.02973267
     27.74200000	      4.63578624	    154.02740893
     27.75000000	      4.63610726	    154.02411889
     27.75800000	      4.64006361	    154.02027506
     27.76700000	      4.64009477	    154.01696298
     27.77500000	      4.64016170	    154.01299751
     27.78300000	      4.64259349	    154.00895232
     27.79200000	      4.64420032	    154.00478526
     27.80000000	      4.64598842	    154.00078229
     27.80800000	      4.64852346	    153.99600193
     27.81700000	      4.64982072	    153.99192971
     27.82500000	      4.65384470	    153.98625679
     27.83300000	      4.65774627	    153.98419030
     27.84200000	      4.66254995	    153.98023217
     27.85000000	      4.66618593	    153.97789783
     27.85800000	      4.66985430	    153.97804740
     27.86700000	      4.67396766	    153.97854684
     27.87500000	      4.67712690	    153.97851209
     27.88300000	      4.68250272	    153.98044685
     27.89200000	      4.68557969	    153.98062690
     27.90000000	      4.68864877	    153.98048165
     27.90800000	      4.69237629	    153.97863926
     27.91700000	      4.69356990	    153.97526541
     27.92500000	      4.69319633	    153.97069249
     27.93300000	      4.69414609	    153.96495019
     27.94200000	      4.69284791	    153.95976325
     27.95000000	      4.69119778	    153.95162337
     27.95800000	      4.68767562	    153.94553375
     27.96700000	      4.68561410	    153.93807121
     27.97500000	      4.68274654	    153.93278342
